<svg width="35" height="35" viewBox="0 0 35 35" fill="none" xmlns="http://www.w3.org/2000/svg">
<path d="M29.7891 5.12408C26.5757 1.91068 22.2333 0 17.4566 0C12.6799 0 8.25064 1.99753 5.12409 5.12408C1.99754 8.25063 0 12.6799 0 17.4566C0 27.0968 7.90323 35 17.5434 35C22.3201 35 26.7494 33.0025 29.8759 29.8759C33.0025 26.7494 35 22.3201 35 17.5434C34.9132 12.6799 32.9156 8.33748 29.7891 5.12408ZM21.2779 12.3325H19.8884C18.7593 12.3325 18.5856 12.8536 18.5856 13.7221V15.4591H21.1911L20.8437 18.2382H18.4988V25.3598H15.8065V18.2382H13.4615V15.4591H15.8065V13.3747C15.8065 11.0298 17.196 9.72704 19.2804 9.72704C19.9752 9.72704 20.67 9.72705 21.3648 9.8139V12.3325H21.2779Z" fill="white"/>
</svg>
