<svg width="257" height="56" viewBox="0 0 257 56" fill="none" xmlns="http://www.w3.org/2000/svg">
<path fill-rule="evenodd" clip-rule="evenodd" d="M20.6967 1.00881C19.713 1.26523 18.6047 1.60222 18.2335 1.75755C17.6288 2.01049 17.5705 2.099 17.6729 2.61049C17.7355 2.92444 17.6438 3.67377 17.469 4.27571C16.6206 7.19864 13.4333 8.54352 10.7299 7.11962L9.6693 6.56087L7.77357 8.46624L5.87804 10.3716L6.3981 11.3286C7.36182 13.1018 7.27672 14.7955 6.14493 16.3602C5.24832 17.5995 4.25308 18.1624 2.74261 18.2838C1.50329 18.3833 1.44817 18.4101 1.18591 19.0387C0.923079 19.6686 -0.085123 23.61 0.00577593 23.6521C0.0305314 23.6633 0.421201 23.9104 0.874149 24.2009C2.56448 25.2853 3.51099 27.4558 3.04663 29.1826C2.9273 29.6267 2.86909 30.0298 2.91764 30.0782C2.96599 30.1266 3.95079 29.3503 5.10598 28.3531C8.45338 25.4637 16.2434 18.8472 16.8544 18.3746C17.9633 17.517 18.0554 17.5587 27.125 23.0296C31.075 25.4126 33.3361 26.8887 33.3792 27.1128C33.4164 27.3059 33.3931 27.6778 33.3276 27.9394C33.2104 28.4066 33.0804 28.3498 26.0833 24.7792C20.3128 21.8346 18.8961 21.0349 18.6315 20.5732L18.3047 20.003L14.7194 23.5728C9.24594 29.0226 7.1456 31.381 6.45457 32.8533C5.90337 34.0278 5.85734 34.2958 5.78849 36.7319L5.71461 39.3486L6.36387 40.3944C6.92918 41.3053 7.01311 41.6053 7.01311 42.7164C7.01311 43.6648 6.90133 44.2052 6.57796 44.8214C6.33853 45.2774 6.14281 45.7317 6.14281 45.8311C6.14281 46.0737 8.33831 48.4118 9.23144 49.12L9.94528 49.6863L10.8812 49.2118C13.112 48.0808 16.0632 49.0693 17.1466 51.3103C17.365 51.762 17.6121 52.6085 17.6959 53.1917L17.8483 54.2522L19.6179 54.7728C20.5911 55.0591 21.7799 55.3523 22.2598 55.4243C23.0798 55.5475 23.149 55.5225 23.4198 55.0031C24.1249 53.6507 25.8963 52.6194 27.5137 52.6194C29.1311 52.6194 30.9025 53.6507 31.6077 55.0031C31.8784 55.5225 31.9477 55.5475 32.7677 55.4243C33.2475 55.3523 34.4363 55.0591 35.4095 54.7728L37.1792 54.2522L37.3316 53.1917C37.4153 52.6085 37.6625 51.762 37.8808 51.3103C38.9643 49.0691 41.9154 48.0808 44.1465 49.2118L45.0826 49.6865L46.0041 48.914C47.1005 47.9946 48.8846 46.0714 48.8846 45.809C48.8846 45.7067 48.709 45.2783 48.4942 44.8567C47.6339 43.1679 47.8646 41.2669 49.1142 39.7487C49.8843 38.8131 51.3952 38.0897 52.5842 38.0872C53.3809 38.0854 53.5021 38.0268 53.6862 37.5527C54.0773 36.5453 54.6527 34.4742 54.7828 33.6056C54.9109 32.7505 54.8996 32.7267 54.1214 32.2111C53.0546 31.504 52.2415 30.3298 51.9663 29.0984C51.7775 28.2532 51.7909 27.9017 52.0452 27.0255C52.4013 25.7991 53.4077 24.5267 54.3914 24.0594C55.1567 23.6956 55.1509 23.9521 54.4579 21.1457C53.7851 18.4205 53.7719 18.4033 52.2848 18.2838C50.7744 18.1624 49.7791 17.5995 48.8825 16.3602C47.7507 14.7955 47.6656 13.1018 48.6293 11.3286L49.1494 10.3716L47.2539 8.46624L45.3581 6.56087L44.2975 7.11962C42.3154 8.16372 39.953 7.72698 38.4771 6.04376C37.7781 5.2466 37.1885 3.44291 37.3546 2.61049C37.4567 2.09997 37.3983 2.01049 36.8018 1.76084C36.1994 1.50868 32.5499 0.518423 32.2076 0.514162C32.13 0.513194 31.8987 0.839341 31.6935 1.2387C31.2023 2.19487 30.4204 2.91727 29.351 3.40185C27.1741 4.38862 24.4485 3.40882 23.3339 1.2387C23.1287 0.839341 22.8539 0.519198 22.7232 0.527332C22.5922 0.53566 21.6805 0.752188 20.6967 1.00881ZM30.0279 6.15009C39.9497 7.36752 47.8631 14.996 49.2815 24.7101C49.6497 27.2327 49.4188 31.5321 48.7916 33.8244C48.1803 36.0596 46.5298 39.4679 45.2152 41.2102C43.2537 43.8097 39.7741 46.701 37.1838 47.884C35.5273 48.6405 34.0513 49.1598 34.4553 48.8437C34.6564 48.6864 34.8988 48.5317 34.9935 48.5001C35.0883 48.4685 34.903 47.9563 34.5816 47.3621C34.1023 46.476 33.7097 46.0865 32.3994 45.1972C30.9942 44.2437 30.7083 44.1221 30.0279 44.1893L29.2543 44.2658L30.0276 43.9774C31.2179 43.5331 31.3305 43.335 31.3576 41.637L31.3818 40.1188L30.1246 40.0567C28.3544 39.9691 27.7669 40.3158 27.242 41.7571C26.5471 43.6658 26.7403 44.412 27.8812 44.2267C28.2641 44.1645 28.5774 44.1395 28.5774 44.1713C28.5774 44.2701 25.7371 46.4133 25.6064 46.4133C25.5385 46.4133 25.483 46.2947 25.483 46.15C25.483 46.0052 25.1871 45.5123 24.8252 45.0544C24.2549 44.3326 23.9917 44.1761 22.8429 43.8763C22.1143 43.6861 21.3701 43.5254 21.1889 43.5194C20.8421 43.5076 20.0677 44.9884 20.0677 45.6632C20.0677 46.1216 19.9194 46.1173 19.1974 45.6386C18.3306 45.0637 17.3944 45.1396 16.4097 45.8648L15.5768 46.4783L14.9289 46.1289C14.5726 45.9368 13.6377 45.1859 12.8513 44.4602L11.4217 43.1411L11.2875 41.3599C11.1308 39.2816 10.8295 38.4465 9.88649 37.4775L9.20088 36.7729L9.17071 34.4542L9.14054 32.1356L9.91395 30.9948C10.8046 29.6809 17.9999 22.2725 18.5575 22.0955C18.8081 22.0157 20.834 22.9051 24.7688 24.8222C27.9804 26.3871 31.3698 28.0208 32.3004 28.4525L33.9927 29.2372L33.9879 30.611C33.9853 31.3663 33.9045 33.4712 33.8086 35.2882C33.6548 38.196 33.574 38.7275 33.1338 39.7243C32.6787 40.7549 32.6594 40.8961 32.9201 41.2946C33.1738 41.6824 33.1725 41.8332 32.9071 42.6128C32.4116 44.0692 32.5832 44.258 33.656 43.4374C34.1621 43.0503 34.6284 42.7334 34.6922 42.7334C34.8071 42.7334 34.6843 43.3793 34.4563 43.9743C34.2513 44.5096 34.7444 44.3109 35.6142 43.5081C36.6377 42.5636 36.9871 42.5076 36.826 43.3145C36.7622 43.634 36.773 43.8947 36.8502 43.8935C36.9274 43.8926 37.3753 43.5852 37.8458 43.2108C38.7697 42.4753 39.1445 42.4396 39.0718 43.0937C39.0101 43.6489 39.1749 43.6205 40.4419 42.8564C41.0362 42.4979 41.7866 42.0953 42.1092 41.9615C42.5279 41.7877 42.6958 41.5873 42.6958 41.2613C42.6958 40.9286 42.8929 40.7037 43.421 40.4332C44.5629 39.8485 45.8509 38.6037 46.4447 37.5112C47.4283 35.7013 47.1512 33.83 45.5933 31.7637C44.9851 30.9569 44.701 30.7382 44.1977 30.6898C43.5792 30.6301 43.5672 30.611 43.6216 29.7731C43.68 28.8745 43.4916 28.6068 42.7925 28.594C42.502 28.5888 42.1196 28.0603 41.2578 26.4733C40.2137 24.5501 40.0386 24.3324 39.3174 24.0564C38.8815 23.8897 38.3736 23.7533 38.1889 23.7533C37.7105 23.7533 34.3396 22.0422 33.9927 21.6231C33.8331 21.4304 32.0378 20.434 30.0028 19.4088L26.303 17.5447L25.4579 17.7682C24.622 17.9894 24.5831 17.9768 21.9051 16.6238C18.6329 14.9708 17.5839 14.5497 16.0355 14.2685C14.4266 13.9765 14.0404 14.1827 14.0982 15.3028C14.1346 16.0052 14.0199 16.2862 13.3153 17.2207C12.8612 17.8228 12.3454 18.3667 12.169 18.429C11.9926 18.4916 10.6498 20.0853 9.18502 21.9712C5.91111 26.1861 5.77244 26.3521 5.6388 26.2182C5.57962 26.159 5.63397 25.4277 5.75987 24.5929C7.1102 15.6316 14.4078 8.0328 23.1985 6.43479C26.1154 5.90451 27.5422 5.84486 30.0279 6.15009ZM17.6081 15.4922C18.6199 15.9157 19.1419 16.7975 18.4238 16.8704C18.2111 16.8918 17.6454 16.9687 17.1667 17.0412C16.337 17.1665 16.2761 17.1427 15.8613 16.5291C15.1948 15.5435 15.2776 15.2317 16.2059 15.2317C16.6349 15.2317 17.2657 15.3488 17.6081 15.4922ZM15.0182 17.0232C15.483 18.2669 15.5147 18.199 13.8675 19.4776C13.0076 20.1452 12.2655 20.6528 12.2183 20.6057C12.1713 20.5585 12.3235 20.2773 12.5566 19.9806C12.7896 19.6839 12.9927 19.2721 13.008 19.0655C13.0329 18.7256 14.5494 16.5874 14.7652 16.5874C14.8149 16.5874 14.9287 16.7834 15.0182 17.0232ZM17.4891 18.6533C17.4181 18.7242 17.3601 18.9421 17.3601 19.1375C17.3601 19.3848 17.5034 19.4925 17.8322 19.4925C18.3784 19.4925 18.5714 19.2694 18.4037 18.8321C18.285 18.522 17.7287 18.4134 17.4891 18.6533ZM29.838 20.8502C31.7086 21.8274 33.3053 22.546 33.4678 22.4836C33.6274 22.4222 34.4381 22.7149 35.2695 23.1338L36.781 23.8953L36.1835 24.2046C35.8551 24.3748 35.3198 24.7384 34.9943 25.0128L34.4023 25.5115L32.5052 24.4151C29.2058 22.5082 26.7523 20.9023 26.3812 20.4061C26.0578 19.9738 26.0642 19.1052 26.3906 19.1052C26.45 19.1052 28.0013 19.8903 29.838 20.8502ZM39.4513 26.6164L39.7847 27.1854L38.6009 27.3092C36.7042 27.5077 36.4319 26.9118 38.0404 26.0825C38.7914 25.6953 38.9455 25.7536 39.4513 26.6164ZM37.2126 29.6755C38.023 29.7979 38.7179 30.3722 39.3383 31.4323C40.4088 33.2614 39.8207 35.4333 37.6499 37.6687C36.6738 38.6738 34.9846 40.022 34.7013 40.022C34.5911 40.022 34.7348 32.759 34.8839 30.7944L34.9889 29.4108L35.7962 29.4971C36.2402 29.5446 36.8777 29.6248 37.2126 29.6755ZM26.2566 34.2972C26.2566 34.4508 26.326 34.6193 26.4109 34.6717C26.6583 34.8249 27.0927 34.4697 26.9469 34.2335C26.755 33.9224 26.2566 33.9685 26.2566 34.2972ZM26.2974 37.2205C26.3463 37.8102 26.48 38.3864 26.5947 38.5013C26.7094 38.6161 27.2023 38.7552 27.6903 38.8102L28.5774 38.9103V38.1263C28.5774 37.695 28.5233 37.2011 28.4573 37.0288C28.3241 36.6809 27.1981 36.1485 26.5958 36.1485C26.2446 36.1485 26.217 36.2477 26.2974 37.2205ZM25.3231 38.9876C25.4045 39.4115 25.9665 39.4714 25.9665 39.0563C25.9665 38.8979 25.8064 38.7375 25.6105 38.6998C25.3521 38.65 25.2734 38.7288 25.3231 38.9876ZM26.3533 40.4093C26.4191 40.5159 26.5111 40.603 26.5581 40.603C26.6051 40.603 26.6434 40.5159 26.6434 40.4093C26.6434 40.3028 26.5512 40.2157 26.4386 40.2157C26.326 40.2157 26.2876 40.3028 26.3533 40.4093ZM26.9939 49.3668L27.6889 50.0931H26.3699C25.0881 50.0931 25.0552 50.0809 25.1964 49.6573C25.2764 49.4175 25.3828 48.7433 25.4329 48.1586L25.5242 47.096L25.9114 47.8681C26.1243 48.2931 26.6115 48.9674 26.9939 49.3668ZM21.2359 48.9349C21.6571 49.1503 22.0018 49.36 22.0018 49.4013C22.0018 49.4427 21.5709 49.3385 21.0442 49.1698C20.5176 49.0011 20.1312 48.7914 20.1853 48.7035C20.3219 48.4821 20.3702 48.4927 21.2359 48.9349Z" fill="#F89F1F"/>
<path d="M158.973 21.5476V16.8391H179.248V21.5476H171.974V40.8268H166.258V21.5476H158.973Z" fill="#F89F1F"/>
<path d="M180.211 47.5733V22.836H185.88V25.9165H186.056C186.29 25.3699 186.622 24.8428 187.051 24.3353C187.489 23.8277 188.043 23.4139 188.715 23.0937C189.394 22.7657 190.206 22.6018 191.151 22.6018C192.4 22.6018 193.568 22.9297 194.653 23.5856C195.746 24.2416 196.629 25.2528 197.3 26.6192C197.972 27.9857 198.307 29.727 198.307 31.8431C198.307 33.8811 197.983 35.5873 197.335 36.9616C196.695 38.3359 195.828 39.3666 194.735 40.0537C193.65 40.7409 192.443 41.0844 191.116 41.0844C190.21 41.0844 189.425 40.9361 188.762 40.6394C188.098 40.3426 187.539 39.9522 187.087 39.4681C186.642 38.984 186.298 38.4647 186.056 37.9103H185.939V47.5733H180.211ZM185.822 31.8314C185.822 32.7996 185.95 33.643 186.208 34.3613C186.474 35.0797 186.852 35.638 187.344 36.0363C187.844 36.4267 188.441 36.6219 189.136 36.6219C189.839 36.6219 190.436 36.4267 190.928 36.0363C191.42 35.638 191.791 35.0797 192.041 34.3613C192.299 33.643 192.428 32.7996 192.428 31.8314C192.428 30.8631 192.299 30.0237 192.041 29.3132C191.791 28.6026 191.42 28.0521 190.928 27.6617C190.444 27.2712 189.847 27.076 189.136 27.076C188.434 27.076 187.836 27.2673 187.344 27.65C186.852 28.0326 186.474 28.5792 186.208 29.2897C185.95 30.0003 185.822 30.8475 185.822 31.8314Z" fill="#F89F1F"/>
<path d="M206.38 41.1313C205.233 41.1313 204.214 40.94 203.323 40.5574C202.441 40.167 201.742 39.5813 201.227 38.8005C200.719 38.0118 200.465 37.024 200.465 35.8371C200.465 34.8377 200.641 33.9943 200.993 33.3072C201.344 32.6201 201.828 32.0617 202.445 31.6323C203.062 31.2028 203.772 30.8788 204.577 30.6601C205.381 30.4337 206.24 30.2814 207.153 30.2033C208.176 30.1096 209 30.012 209.625 29.9105C210.249 29.8012 210.702 29.6489 210.983 29.4537C211.272 29.2507 211.417 28.9657 211.417 28.5987V28.5401C211.417 27.9389 211.21 27.4743 210.796 27.1463C210.382 26.8184 209.824 26.6544 209.121 26.6544C208.364 26.6544 207.755 26.8184 207.294 27.1463C206.833 27.4743 206.54 27.9272 206.416 28.505L201.133 28.3176C201.289 27.2244 201.691 26.2483 202.339 25.3894C202.995 24.5227 203.893 23.8433 205.033 23.3514C206.181 22.8516 207.559 22.6018 209.168 22.6018C210.316 22.6018 211.374 22.7384 212.342 23.0117C213.31 23.2772 214.154 23.6676 214.872 24.183C215.59 24.6905 216.145 25.3152 216.535 26.057C216.934 26.7988 217.133 27.6461 217.133 28.5987V40.8268H211.745V38.3202H211.604C211.284 38.9293 210.874 39.4447 210.374 39.8663C209.882 40.288 209.301 40.6042 208.629 40.8151C207.966 41.0259 207.216 41.1313 206.38 41.1313ZM208.149 37.3832C208.766 37.3832 209.32 37.2583 209.812 37.0084C210.312 36.7586 210.71 36.415 211.007 35.9777C211.304 35.5326 211.452 35.0173 211.452 34.4316V32.7216C211.288 32.8075 211.089 32.8855 210.855 32.9558C210.628 33.0261 210.378 33.0925 210.105 33.1549C209.832 33.2174 209.551 33.2721 209.262 33.3189C208.973 33.3658 208.696 33.4087 208.43 33.4478C207.891 33.5336 207.431 33.6664 207.048 33.846C206.673 34.0256 206.384 34.2598 206.181 34.5487C205.986 34.8299 205.888 35.1656 205.888 35.556C205.888 36.1495 206.099 36.6024 206.521 36.9147C206.95 37.2271 207.493 37.3832 208.149 37.3832Z" fill="#F89F1F"/>
<path d="M233.32 29.5943V33.9631H224.09V29.5943H233.32ZM226.058 22.836V40.8268H220.635V22.836H226.058ZM236.775 22.836V40.8268H231.387V22.836H236.775Z" fill="#F89F1F"/>
<path d="M248.649 41.1664C246.751 41.1664 245.123 40.776 243.764 39.9952C242.414 39.2143 241.375 38.1289 240.649 36.739C239.923 35.3413 239.56 33.725 239.56 31.89C239.56 30.0472 239.923 28.4308 240.649 27.0409C241.383 25.6432 242.425 24.5539 243.776 23.773C245.135 22.9922 246.755 22.6018 248.637 22.6018C250.3 22.6018 251.749 22.9024 252.982 23.5037C254.224 24.1049 255.192 24.956 255.887 26.057C256.59 27.1502 256.961 28.4347 257 29.9105H251.647C251.538 28.9891 251.225 28.2668 250.71 27.7437C250.203 27.2205 249.539 26.9589 248.719 26.9589C248.055 26.9589 247.473 27.1463 246.974 27.5211C246.474 27.8881 246.084 28.4347 245.802 29.1609C245.529 29.8793 245.393 30.7694 245.393 31.8314C245.393 32.8934 245.529 33.7913 245.802 34.5253C246.084 35.2515 246.474 35.802 246.974 36.1768C247.473 36.5438 248.055 36.7273 248.719 36.7273C249.25 36.7273 249.718 36.6141 250.124 36.3876C250.538 36.1612 250.878 35.8293 251.143 35.3921C251.409 34.947 251.577 34.4082 251.647 33.7757H257C256.945 35.2593 256.574 36.5555 255.887 37.6643C255.208 38.7731 254.251 39.636 253.018 40.2528C251.792 40.8619 250.335 41.1664 248.649 41.1664Z" fill="#F89F1F"/>
<path d="M89.8849 25.53H84.0285C83.9505 24.9288 83.7904 24.3861 83.5483 23.902C83.3063 23.4178 82.9861 23.004 82.5879 22.6604C82.1896 22.3168 81.7172 22.0553 81.1706 21.8757C80.6319 21.6883 80.0345 21.5946 79.3786 21.5946C78.2151 21.5946 77.2117 21.8796 76.3684 22.4496C75.5329 23.0196 74.8887 23.8434 74.4358 24.921C73.9907 25.9985 73.7682 27.3026 73.7682 28.833C73.7682 30.4259 73.9946 31.7612 74.4475 32.8388C74.9082 33.9085 75.5524 34.7167 76.3801 35.2633C77.2156 35.8021 78.2034 36.0715 79.3435 36.0715C79.9837 36.0715 80.5655 35.9895 81.0886 35.8255C81.6196 35.6615 82.0842 35.4234 82.4825 35.111C82.8885 34.7909 83.2204 34.4044 83.478 33.9515C83.7435 33.4908 83.927 32.9715 84.0285 32.3937L89.8849 32.4288C89.7834 33.4908 89.475 34.5371 88.9596 35.5678C88.452 36.5986 87.7532 37.5395 86.863 38.3906C85.9729 39.2339 84.8875 39.9054 83.6069 40.4052C82.3341 40.9049 80.8739 41.1548 79.2263 41.1548C77.0556 41.1548 75.1113 40.6785 73.3934 39.7258C71.6833 38.7654 70.3325 37.3677 69.3408 35.5327C68.3491 33.6977 67.8533 31.4645 67.8533 28.833C67.8533 26.1937 68.3569 23.9566 69.3642 22.1216C70.3715 20.2866 71.7341 18.8928 73.452 17.9402C75.1698 16.9875 77.0946 16.5112 79.2263 16.5112C80.6787 16.5112 82.0218 16.7143 83.2555 17.1203C84.4892 17.5185 85.5746 18.1042 86.5116 18.8772C87.4487 19.6424 88.21 20.5834 88.7956 21.7C89.3813 22.8166 89.7443 24.0933 89.8849 25.53Z" fill="white"/>
<path d="M93.2025 40.8268V22.8361H109.448V40.8268H104.025V27.2167H98.5552V40.8268H93.2025Z" fill="white"/>
<path d="M121.486 41.1665C119.604 41.1665 117.98 40.7956 116.613 40.0538C115.255 39.3042 114.208 38.2383 113.474 36.8562C112.748 35.4663 112.385 33.8148 112.385 31.9017C112.385 30.0433 112.752 28.4192 113.486 27.0293C114.22 25.6315 115.255 24.5462 116.59 23.7731C117.925 22.9923 119.499 22.6018 121.31 22.6018C122.591 22.6018 123.762 22.801 124.824 23.1992C125.886 23.5974 126.803 24.187 127.576 24.9678C128.349 25.7487 128.951 26.713 129.38 27.8609C129.81 29.0009 130.024 30.3088 130.024 31.7846V33.2136H114.388V29.8872H124.695C124.687 29.2781 124.543 28.7354 124.262 28.2591C123.981 27.7828 123.594 27.4119 123.102 27.1464C122.618 26.8731 122.06 26.7364 121.427 26.7364C120.787 26.7364 120.213 26.8809 119.705 27.1698C119.198 27.4509 118.796 27.8374 118.499 28.3294C118.202 28.8135 118.046 29.364 118.031 29.9809V33.3658C118.031 34.0998 118.175 34.744 118.464 35.2984C118.753 35.845 119.163 36.2706 119.694 36.5751C120.225 36.8797 120.857 37.0319 121.591 37.0319C122.099 37.0319 122.559 36.9616 122.973 36.8211C123.387 36.6805 123.742 36.4736 124.039 36.2003C124.336 35.927 124.558 35.5913 124.707 35.193L129.966 35.3453C129.747 36.5244 129.267 37.5512 128.525 38.4257C127.791 39.2925 126.827 39.9679 125.632 40.452C124.437 40.9284 123.055 41.1665 121.486 41.1665Z" fill="white"/>
<path d="M149.195 22.8361V37.0905H152.182V46.6012H146.642V40.8268H132.95V22.8361H138.373V36.4463H143.854V22.8361H149.195Z" fill="white"/>
</svg>
