<svg width="278" height="60" viewBox="0 0 278 60" fill="none" xmlns="http://www.w3.org/2000/svg">
<path fill-rule="evenodd" clip-rule="evenodd" d="M22.5898 0.539892C21.5162 0.819773 20.3064 1.18759 19.9014 1.35713C19.2413 1.6332 19.1777 1.72981 19.2894 2.28809C19.3578 2.63075 19.2577 3.44862 19.0669 4.10562C18.1408 7.29591 14.662 8.7638 11.7114 7.20966L10.5538 6.59981L8.48462 8.67946L6.4157 10.7591L6.98333 11.8036C8.03521 13.7391 7.94233 15.5877 6.70701 17.2955C5.72839 18.6482 4.64211 19.2625 2.99347 19.395C1.64079 19.5037 1.58063 19.5328 1.29439 20.219C1.00751 20.9065 -0.0929092 25.2085 0.00630425 25.2543C0.0333241 25.2666 0.459729 25.5363 0.954108 25.8534C2.79906 27.037 3.83214 29.406 3.32531 31.2908C3.19507 31.7755 3.13153 32.2154 3.18451 32.2682C3.23729 32.3211 4.31217 31.4738 5.57303 30.3854C9.22661 27.2317 17.7292 20.01 18.396 19.4942C19.6065 18.5581 19.7069 18.6036 29.6061 24.5749C33.9175 27.1759 36.3854 28.7871 36.4324 29.0317C36.473 29.2424 36.4476 29.6483 36.3761 29.9339C36.2481 30.4437 36.1063 30.3818 28.4692 26.4846C22.1708 23.2706 20.6246 22.3978 20.3358 21.8939L19.979 21.2715L16.0658 25.1679C10.0917 31.1162 7.79921 33.6903 7.04497 35.2972C6.44336 36.5791 6.39312 36.8717 6.31797 39.5305L6.23733 42.3866L6.94597 43.5281C7.56299 44.5223 7.65461 44.8497 7.65461 46.0625C7.65461 47.0977 7.5326 47.6874 7.17965 48.3601C6.91832 48.8577 6.70469 49.3536 6.70469 49.4621C6.70469 49.7269 9.10101 52.2788 10.0758 53.0519L10.855 53.67L11.8765 53.1521C14.3114 51.9176 17.5325 52.9965 18.715 55.4425C18.9533 55.9355 19.2231 56.8594 19.3145 57.4959L19.4809 58.6535L21.4123 59.2217C22.4746 59.5342 23.7722 59.8542 24.2959 59.9328C25.1909 60.0673 25.2665 60.04 25.562 59.4731C26.3316 57.9969 28.265 56.8713 30.0304 56.8713C31.7958 56.8713 33.7292 57.9969 34.4988 59.4731C34.7943 60.04 34.8699 60.0673 35.7649 59.9328C36.2887 59.8542 37.5863 59.5342 38.6485 59.2217L40.58 58.6535L40.7463 57.4959C40.8377 56.8594 41.1075 55.9355 41.3458 55.4425C42.5284 52.9963 45.7494 51.9176 48.1846 53.1521L49.2063 53.6702L50.2121 52.827C51.4088 51.8235 53.3561 49.7244 53.3561 49.438C53.3561 49.3264 53.1645 48.8588 52.9299 48.3986C51.991 46.5552 52.2428 44.4804 53.6067 42.8234C54.4473 41.8021 56.0963 41.0126 57.3941 41.0099C58.2636 41.0079 58.396 40.9439 58.5969 40.4264C59.0238 39.327 59.6518 37.0664 59.7938 36.1183C59.9336 35.185 59.9213 35.159 59.0719 34.5963C57.9075 33.8245 57.0201 32.5428 56.7197 31.1988C56.5137 30.2763 56.5282 29.8926 56.8058 28.9363C57.1944 27.5978 58.293 26.209 59.3666 25.6989C60.2019 25.3019 60.1955 25.5818 59.4392 22.5187C58.7048 19.5443 58.6904 19.5255 57.0674 19.395C55.4187 19.2625 54.3324 18.6482 53.3538 17.2955C52.1185 15.5877 52.0256 13.7391 53.0775 11.8036L53.6451 10.7591L51.5762 8.67946L49.5071 6.59981L48.3494 7.20966C46.186 8.34927 43.6075 7.87258 41.9966 6.03539C41.2337 5.16531 40.5901 3.19664 40.7714 2.28809C40.8829 1.73086 40.8191 1.6332 40.1681 1.36072C39.5106 1.08549 35.5273 0.00465292 35.1536 2.34759e-06C35.069 -0.0010546 34.8165 0.354925 34.5925 0.790811C34.0564 1.83444 33.2029 2.62293 32.0358 3.15182C29.6597 4.22886 26.6848 3.15944 25.4683 0.790811C25.2443 0.354925 24.9443 0.00549865 24.8017 0.014377C24.6587 0.0234668 23.6637 0.259801 22.5898 0.539892ZM32.7746 6.15145C43.6039 7.48024 52.2411 15.8065 53.7893 26.4092C54.1912 29.1625 53.9392 33.8551 53.2546 36.3572C52.5873 38.7968 50.7859 42.5169 49.3511 44.4185C47.2102 47.2558 43.4122 50.4116 40.585 51.7028C38.777 52.5285 37.166 53.0952 37.6069 52.7502C37.8265 52.5786 38.091 52.4097 38.1944 52.3752C38.2978 52.3408 38.0956 51.7816 37.7448 51.1331C37.2217 50.166 36.7932 49.7409 35.363 48.7702C33.8292 47.7295 33.5172 47.5968 32.7746 47.6701L31.9302 47.7536L32.7742 47.4389C34.0735 46.9539 34.1963 46.7377 34.2259 44.8844L34.2523 43.2273L32.8802 43.1595C30.948 43.0639 30.3067 43.4423 29.7338 45.0155C28.9754 47.0987 29.1863 47.9132 30.4315 47.7109C30.8495 47.6431 31.1914 47.6158 31.1914 47.6505C31.1914 47.7583 28.0913 50.0975 27.9486 50.0975C27.8745 50.0975 27.8139 49.9681 27.8139 49.8102C27.8139 49.6521 27.491 49.1141 27.096 48.6144C26.4735 47.8265 26.1862 47.6557 24.9323 47.3285C24.1371 47.1209 23.3248 46.9455 23.1271 46.9389C22.7486 46.926 21.9034 48.5423 21.9034 49.2788C21.9034 49.7792 21.7414 49.7745 20.9534 49.2519C20.0073 48.6245 18.9854 48.7074 17.9107 49.4988L17.0016 50.1685L16.2944 49.7872C15.9056 49.5775 14.8852 48.7579 14.0269 47.9658L12.4665 46.5261L12.32 44.5819C12.149 42.3135 11.8201 41.402 10.7908 40.3444L10.0425 39.5754L10.0096 37.0446L9.97662 34.5138L10.8208 33.2688C11.7929 31.8347 19.6463 23.7486 20.2549 23.5554C20.5285 23.4683 22.7397 24.439 27.0344 26.5315C30.5398 28.2396 34.2392 30.0227 35.255 30.4938L37.102 31.3504L37.0967 32.8498C37.094 33.6742 37.0058 35.9716 36.9011 37.9548C36.7332 41.1287 36.645 41.7087 36.1645 42.7967C35.6678 43.9215 35.6467 44.0756 35.9313 44.5107C36.2082 44.9339 36.2068 45.0986 35.9171 45.9494C35.3763 47.5391 35.5636 47.7452 36.7345 46.8495C37.2869 46.4269 37.7959 46.0811 37.8655 46.0811C37.9909 46.0811 37.8569 46.7861 37.608 47.4355C37.3842 48.0198 37.9225 47.8029 38.8718 46.9267C39.9889 45.8957 40.3704 45.8346 40.1945 46.7153C40.1249 47.0641 40.1367 47.3486 40.2209 47.3473C40.3051 47.3463 40.794 47.0108 41.3076 46.6022C42.316 45.7993 42.7251 45.7604 42.6457 46.4743C42.5784 47.0803 42.7582 47.0493 44.1411 46.2153C44.7898 45.824 45.6088 45.3846 45.9609 45.2385C46.4179 45.0489 46.6012 44.8301 46.6012 44.4743C46.6012 44.1111 46.8163 43.8657 47.3928 43.5704C48.6391 42.9322 50.0449 41.5736 50.693 40.3812C51.7666 38.4057 51.4641 36.3633 49.7638 34.108C49.0999 33.2273 48.7898 32.9887 48.2405 32.9358C47.5654 32.8707 47.5524 32.8498 47.6117 31.9353C47.6754 30.9545 47.4698 30.6623 46.7067 30.6484C46.3897 30.6427 45.9723 30.0658 45.0317 28.3336C43.892 26.2345 43.701 25.9969 42.9138 25.6957C42.438 25.5137 41.8837 25.3649 41.6821 25.3649C41.1598 25.3649 37.4807 23.4973 37.102 23.0398C36.9279 22.8295 34.9683 21.7419 32.7472 20.623L28.709 18.5884L27.7865 18.8323C26.8742 19.0737 26.8317 19.06 23.9087 17.5832C20.3373 15.779 19.1923 15.3194 17.5023 15.0125C15.7462 14.6937 15.3247 14.9188 15.3878 16.1413C15.4275 16.908 15.3023 17.2147 14.5333 18.2347C14.0376 18.8919 13.4746 19.4855 13.2821 19.5536C13.0896 19.6218 11.624 21.3614 10.0252 23.4197C6.4518 28.0202 6.30045 28.2013 6.15458 28.0552C6.08999 27.9906 6.14931 27.1924 6.28673 26.2813C7.76058 16.5003 15.7257 8.20637 25.3205 6.46219C28.5042 5.88341 30.0614 5.8183 32.7746 6.15145ZM19.2187 16.348C20.3231 16.8104 20.8929 17.7728 20.1091 17.8523C19.8769 17.8758 19.2594 17.9597 18.737 18.0387C17.8314 18.1755 17.7649 18.1495 17.3121 17.4798C16.5847 16.4041 16.675 16.0637 17.6883 16.0637C18.1565 16.0637 18.845 16.1916 19.2187 16.348ZM16.3919 18.0191C16.8992 19.3766 16.9338 19.3024 15.1359 20.698C14.1974 21.4267 13.3875 21.9807 13.336 21.9294C13.2847 21.8778 13.4508 21.5709 13.7051 21.247C13.9595 20.9232 14.1812 20.4737 14.1978 20.2482C14.2251 19.8772 15.8802 17.5435 16.1158 17.5435C16.1701 17.5435 16.2942 17.7574 16.3919 18.0191ZM19.0889 19.7984C19.0114 19.8757 18.9481 20.1135 18.9481 20.3268C18.9481 20.5968 19.1045 20.7143 19.4633 20.7143C20.0595 20.7143 20.2701 20.4708 20.0871 19.9935C19.9575 19.655 19.3504 19.5364 19.0889 19.7984ZM32.5673 22.1961C34.609 23.2628 36.3518 24.0471 36.5291 23.979C36.7033 23.912 37.5882 24.2314 38.4956 24.6886L40.1453 25.5198L39.4933 25.8574C39.1348 26.0432 38.5505 26.44 38.1953 26.7396L37.5491 27.2839L35.4785 26.0872C31.8773 24.0059 29.1993 22.253 28.7943 21.7114C28.4413 21.2396 28.4483 20.2915 28.8046 20.2915C28.8694 20.2915 30.5626 21.1485 32.5673 22.1961ZM43.0599 28.4899L43.4238 29.1109L42.1317 29.246C40.0615 29.4627 39.7643 28.8122 41.52 27.9071C42.3396 27.4845 42.5079 27.5481 43.0599 28.4899ZM40.6165 31.8288C41.501 31.9624 42.2594 32.5891 42.9366 33.7463C44.105 35.7426 43.4631 38.1132 41.0938 40.553C40.0284 41.6502 38.1847 43.1216 37.8755 43.1216C37.7551 43.1216 37.912 35.1943 38.0747 33.05L38.1894 31.5398L39.0705 31.6341C39.5551 31.6859 40.2509 31.7734 40.6165 31.8288ZM28.6583 36.8732C28.6583 37.0408 28.7341 37.2247 28.8268 37.282C29.0968 37.4492 29.5709 37.0615 29.4117 36.8036C29.2023 36.4641 28.6583 36.5144 28.6583 36.8732ZM28.7029 40.0639C28.7563 40.7076 28.9021 41.3365 29.0273 41.4618C29.1525 41.5872 29.6906 41.7389 30.2231 41.799L31.1914 41.9083V41.0526C31.1914 40.5818 31.1323 40.0427 31.0603 39.8546C30.9149 39.475 29.6859 38.8938 29.0286 38.8938C28.6452 38.8938 28.615 39.0021 28.7029 40.0639ZM27.6394 41.9926C27.7282 42.4553 28.3417 42.5207 28.3417 42.0676C28.3417 41.8947 28.1669 41.7197 27.9531 41.6785C27.671 41.6242 27.5851 41.7102 27.6394 41.9926ZM28.7639 43.5444C28.8356 43.6607 28.9361 43.7558 28.9874 43.7558C29.0387 43.7558 29.0805 43.6607 29.0805 43.5444C29.0805 43.4282 28.9798 43.333 28.857 43.333C28.7341 43.333 28.6921 43.4282 28.7639 43.5444ZM29.463 53.3212L30.2217 54.1139H28.782C27.3829 54.1139 27.347 54.1006 27.5011 53.6383C27.5885 53.3766 27.7046 52.6407 27.7593 52.0025L27.8589 50.8427L28.2815 51.6855C28.5139 52.1493 29.0457 52.8853 29.463 53.3212ZM23.1783 52.8498C23.6381 53.0849 24.0143 53.3138 24.0143 53.3588C24.0143 53.4041 23.544 53.2903 22.9692 53.1062C22.3944 52.9221 21.9726 52.6932 22.0317 52.5972C22.1807 52.3556 22.2335 52.3672 23.1783 52.8498Z" fill="#F89F1F"/>
<path d="M170.789 22.9574V17.8182H192.918V22.9574H184.979V44H178.741V22.9574H170.789Z" fill="#F89F1F"/>
<path d="M193.97 51.3636V24.3636H200.157V27.7258H200.349C200.605 27.1293 200.967 26.554 201.436 26C201.913 25.446 202.518 24.9943 203.251 24.6449C203.993 24.2869 204.879 24.108 205.91 24.108C207.274 24.108 208.548 24.4659 209.733 25.1818C210.926 25.8977 211.889 27.0014 212.622 28.4929C213.355 29.9844 213.721 31.8849 213.721 34.1946C213.721 36.419 213.368 38.2812 212.66 39.7812C211.961 41.2812 211.015 42.4062 209.822 43.1562C208.637 43.9062 207.321 44.2812 205.872 44.2812C204.883 44.2812 204.027 44.1193 203.302 43.7955C202.578 43.4716 201.968 43.0455 201.474 42.517C200.988 41.9886 200.613 41.4219 200.349 40.8168H200.221V51.3636H193.97ZM200.093 34.1818C200.093 35.2386 200.234 36.1591 200.515 36.9432C200.805 37.7273 201.218 38.3366 201.755 38.7713C202.301 39.1974 202.953 39.4105 203.711 39.4105C204.478 39.4105 205.13 39.1974 205.667 38.7713C206.204 38.3366 206.609 37.7273 206.882 36.9432C207.163 36.1591 207.304 35.2386 207.304 34.1818C207.304 33.125 207.163 32.2088 206.882 31.4332C206.609 30.6577 206.204 30.0568 205.667 29.6307C205.139 29.2045 204.487 28.9915 203.711 28.9915C202.944 28.9915 202.292 29.2003 201.755 29.6179C201.218 30.0355 200.805 30.6321 200.515 31.4077C200.234 32.1832 200.093 33.1079 200.093 34.1818Z" fill="#F89F1F"/>
<path d="M222.533 44.3324C221.28 44.3324 220.168 44.1236 219.196 43.706C218.233 43.2798 217.47 42.6406 216.908 41.7883C216.354 40.9276 216.077 39.8494 216.077 38.554C216.077 37.4631 216.268 36.5426 216.652 35.7926C217.036 35.0426 217.564 34.4332 218.237 33.9645C218.911 33.4957 219.686 33.142 220.564 32.9034C221.442 32.6562 222.379 32.4901 223.376 32.4048C224.493 32.3026 225.392 32.196 226.074 32.0852C226.756 31.9659 227.25 31.7997 227.557 31.5866C227.872 31.3651 228.03 31.054 228.03 30.6534V30.5895C228.03 29.9332 227.804 29.4261 227.352 29.0682C226.901 28.7102 226.291 28.5312 225.524 28.5312C224.697 28.5312 224.033 28.7102 223.53 29.0682C223.027 29.4261 222.707 29.9204 222.571 30.5511L216.805 30.3466C216.976 29.1534 217.415 28.0881 218.122 27.1506C218.838 26.2045 219.818 25.4631 221.062 24.9261C222.315 24.3807 223.82 24.108 225.575 24.108C226.828 24.108 227.983 24.2571 229.04 24.5554C230.097 24.8452 231.017 25.2713 231.801 25.8338C232.585 26.3878 233.19 27.0696 233.616 27.8793C234.051 28.6889 234.268 29.6136 234.268 30.6534V44H228.388V41.2642H228.234C227.885 41.929 227.438 42.4915 226.892 42.9517C226.355 43.4119 225.72 43.7571 224.987 43.9872C224.263 44.2173 223.445 44.3324 222.533 44.3324ZM224.463 40.2415C225.136 40.2415 225.741 40.1051 226.278 39.8324C226.824 39.5597 227.259 39.1847 227.582 38.7074C227.906 38.2216 228.068 37.6591 228.068 37.0199V35.1534C227.889 35.2472 227.672 35.3324 227.416 35.4091C227.169 35.4858 226.896 35.5582 226.598 35.6264C226.3 35.6946 225.993 35.7543 225.678 35.8054C225.362 35.8565 225.06 35.9034 224.77 35.946C224.182 36.0398 223.679 36.1847 223.261 36.3807C222.852 36.5767 222.537 36.8324 222.315 37.1477C222.102 37.4545 221.996 37.821 221.996 38.2472C221.996 38.8949 222.226 39.3892 222.686 39.7301C223.155 40.071 223.747 40.2415 224.463 40.2415Z" fill="#F89F1F"/>
<path d="M251.936 31.7401V36.5085H241.862V31.7401H251.936ZM244.01 24.3636V44H238.091V24.3636H244.01ZM255.707 24.3636V44H249.827V24.3636H255.707Z" fill="#F89F1F"/>
<path d="M268.667 44.3707C266.596 44.3707 264.819 43.9446 263.336 43.0923C261.862 42.2401 260.728 41.0554 259.936 39.5383C259.143 38.0128 258.747 36.2486 258.747 34.2457C258.747 32.2344 259.143 30.4702 259.936 28.9531C260.737 27.4276 261.875 26.2386 263.349 25.3864C264.832 24.5341 266.6 24.108 268.654 24.108C270.47 24.108 272.051 24.4361 273.397 25.0923C274.752 25.7486 275.809 26.6776 276.568 27.8793C277.335 29.0724 277.74 30.4744 277.782 32.0852H271.94C271.821 31.0795 271.48 30.2912 270.917 29.7202C270.363 29.1491 269.639 28.8636 268.744 28.8636C268.02 28.8636 267.385 29.0682 266.839 29.4773C266.294 29.8778 265.868 30.4744 265.561 31.267C265.262 32.0511 265.113 33.0227 265.113 34.1818C265.113 35.3409 265.262 36.321 265.561 37.1222C265.868 37.9148 266.294 38.5156 266.839 38.9247C267.385 39.3253 268.02 39.5256 268.744 39.5256C269.324 39.5256 269.835 39.402 270.278 39.1548C270.73 38.9077 271.101 38.5454 271.39 38.0682C271.68 37.5824 271.863 36.9943 271.94 36.304H277.782C277.723 37.9233 277.318 39.3381 276.568 40.5483C275.826 41.7585 274.782 42.7003 273.436 43.3736C272.098 44.0383 270.508 44.3707 268.667 44.3707Z" fill="#F89F1F"/>
<path d="M96.7471 27.304H90.355C90.2698 26.6477 90.0951 26.0554 89.8309 25.527C89.5667 24.9986 89.2172 24.5469 88.7826 24.1719C88.3479 23.7969 87.8323 23.5114 87.2357 23.3153C86.6476 23.1108 85.9957 23.0085 85.2797 23.0085C84.0099 23.0085 82.9147 23.3196 81.9942 23.9418C81.0823 24.5639 80.3792 25.4631 79.8849 26.6392C79.3991 27.8153 79.1562 29.2386 79.1562 30.9091C79.1562 32.6477 79.4033 34.1051 79.8976 35.2812C80.4005 36.4489 81.1036 37.331 82.007 37.9276C82.9189 38.5156 83.9971 38.8097 85.2414 38.8097C85.9403 38.8097 86.5752 38.7202 87.1462 38.5412C87.7258 38.3622 88.2329 38.1023 88.6675 37.7614C89.1107 37.4119 89.4729 36.99 89.7542 36.4957C90.0439 35.9929 90.2442 35.4261 90.355 34.7954L96.7471 34.8338C96.6363 35.9929 96.2996 37.1349 95.7371 38.2599C95.1832 39.3849 94.4204 40.4119 93.4488 41.3409C92.4772 42.2614 91.2925 42.9943 89.8948 43.5398C88.5056 44.0852 86.9118 44.3579 85.1135 44.3579C82.7442 44.3579 80.6221 43.8381 78.7471 42.7983C76.8806 41.75 75.4062 40.2244 74.3238 38.2216C73.2414 36.2187 72.7002 33.7812 72.7002 30.9091C72.7002 28.0284 73.2499 25.5866 74.3493 23.5838C75.4488 21.581 76.936 20.0597 78.811 19.0199C80.686 17.9801 82.7868 17.4602 85.1135 17.4602C86.6988 17.4602 88.1647 17.6818 89.5113 18.125C90.8579 18.5597 92.0425 19.1989 93.0653 20.0426C94.088 20.8778 94.9189 21.9048 95.5582 23.1236C96.1974 24.3423 96.5937 25.7358 96.7471 27.304Z" fill="#3B3C45"/>
<path d="M100.368 44V24.3636H118.1V44H112.181V29.1449H106.21V44H100.368Z" fill="#3B3C45"/>
<path d="M131.239 44.3707C129.185 44.3707 127.412 43.9659 125.92 43.1562C124.437 42.3381 123.295 41.1747 122.494 39.6662C121.702 38.1491 121.305 36.3466 121.305 34.2585C121.305 32.2301 121.706 30.4574 122.507 28.9403C123.308 27.4148 124.437 26.2301 125.895 25.3864C127.352 24.5341 129.07 24.1079 131.047 24.1079C132.445 24.1079 133.723 24.3253 134.882 24.7599C136.041 25.1946 137.043 25.8381 137.886 26.6903C138.73 27.5426 139.386 28.5952 139.855 29.848C140.324 31.0923 140.558 32.5199 140.558 34.1307V35.6903H123.491V32.0597H134.741C134.733 31.3949 134.575 30.8026 134.268 30.2827C133.962 29.7628 133.54 29.3579 133.003 29.0682C132.474 28.7699 131.865 28.6207 131.175 28.6207C130.476 28.6207 129.849 28.7784 129.295 29.0937C128.741 29.4006 128.302 29.8224 127.979 30.3594C127.655 30.8878 127.484 31.4886 127.467 32.1619V35.8565C127.467 36.6577 127.625 37.3608 127.94 37.9659C128.256 38.5625 128.703 39.027 129.283 39.3594C129.862 39.6918 130.552 39.8579 131.354 39.8579C131.908 39.8579 132.41 39.7812 132.862 39.6278C133.314 39.4744 133.702 39.2486 134.025 38.9503C134.349 38.652 134.592 38.2855 134.754 37.8508L140.494 38.017C140.256 39.304 139.731 40.4247 138.922 41.3793C138.121 42.3253 137.068 43.0625 135.764 43.5909C134.46 44.1108 132.952 44.3707 131.239 44.3707Z" fill="#3B3C45"/>
<path d="M161.483 24.3636V39.9219H164.742V50.3026H158.696V44H143.751V24.3636H149.67V39.2187H155.653V24.3636H161.483Z" fill="#3B3C45"/>
</svg>
