<svg width="35" height="35" viewBox="0 0 35 35" fill="none" xmlns="http://www.w3.org/2000/svg">
<path d="M20.0737 21.7908C20.4963 21.7306 21.3415 21.2493 21.5226 20.768C21.7037 20.2867 21.7037 19.8656 21.6433 19.6851C21.583 19.625 21.4622 19.5648 21.2207 19.4445C21.0396 19.3241 19.9529 18.7827 19.7718 18.7225C19.5907 18.6624 19.4096 18.6022 19.2888 18.8428C19.1681 19.0835 18.7455 19.5648 18.6247 19.6851C18.504 19.8054 18.3833 19.8656 18.1418 19.7453C18.1052 19.727 18.0588 19.706 18.0037 19.681C17.6948 19.5409 17.1081 19.2749 16.391 18.6624C15.7269 18.0607 15.3043 17.3989 15.1835 17.1583C15.0628 16.9778 15.1835 16.8575 15.3043 16.7372C15.3293 16.7122 15.3647 16.6667 15.4061 16.6133C15.4647 16.5378 15.5354 16.4467 15.6061 16.3762C15.7269 16.2559 15.7873 16.1355 15.8476 16.0152C15.908 15.8949 15.908 15.7746 15.8476 15.6542C15.8078 15.6146 15.6105 15.1302 15.4288 14.6841C15.3349 14.4537 15.2452 14.2335 15.1835 14.09C15.0216 13.7136 14.8597 13.7217 14.741 13.7277C14.7269 13.7284 14.7134 13.729 14.7006 13.729H14.278C14.0968 13.729 13.8554 13.729 13.6742 13.9697C13.6503 14.0015 13.62 14.0376 13.5854 14.0787C13.3589 14.3482 12.9498 14.8349 12.9498 15.7746C12.9498 16.8575 13.7346 17.8802 13.8554 18.0006C13.8587 18.0056 13.863 18.0121 13.8683 18.0201C14.0538 18.3003 15.425 20.3719 17.538 21.2493C17.8748 21.4171 18.1822 21.5264 18.4398 21.618C18.5516 21.6578 18.6541 21.6942 18.7455 21.7306C19.2285 21.851 19.7114 21.851 20.0737 21.7908Z" fill="white"/>
<path fill-rule="evenodd" clip-rule="evenodd" d="M0 17.5C0 27.1164 7.88368 35 17.5 35C27.1164 35 35 27.1164 35 17.5C35 7.88367 27.1164 0 17.5 0C7.88368 0 0 7.88367 0 17.5ZM17.3569 9.09654C19.6511 9.09654 21.8245 9.99898 23.4545 11.6234C25.0845 13.2477 25.9298 15.4136 25.9901 17.6396C25.9901 22.3924 22.1263 26.2428 17.3569 26.2428C15.908 26.2428 14.5195 25.8818 13.2516 25.22L8.66337 26.4233L9.87081 21.9713C9.14635 20.7079 8.72375 19.2038 8.72375 17.6998C8.72375 12.9469 12.5875 9.09654 17.3569 9.09654Z" fill="white"/>
</svg>
