<svg width="35" height="35" viewBox="0 0 35 35" fill="none" xmlns="http://www.w3.org/2000/svg">
<path d="M29.7891 5.12407C26.6625 1.91067 22.2332 0 17.4566 0C12.6799 0 8.25064 1.99751 5.12409 5.12407C1.91069 8.25062 0 12.6799 0 17.4566C0 27.0968 7.90324 35 17.5434 35C22.3201 35 26.7494 33.0025 29.876 29.8759C33.0894 26.6625 35 22.3201 35 17.5434C35 12.7668 33.0025 8.25062 29.7891 5.12407ZM26.8363 10.7692C26.7494 11.464 26.402 13.8089 25.9678 16.3276C25.3598 19.9752 24.7519 23.8834 24.7519 23.8834C24.7519 23.8834 24.665 25.0124 23.7966 25.1861C23.0149 25.3598 21.6253 24.4913 21.3647 24.3176C21.1911 24.1439 17.804 21.9727 16.5012 20.9305C16.1539 20.67 15.8065 20.062 16.5012 19.3673C18.2382 17.804 20.3226 15.8065 21.5385 14.5906C22.1464 13.9826 22.6675 12.6799 20.3226 14.33C16.9355 16.6749 13.5484 18.933 13.5484 18.933C13.5484 18.933 12.7667 19.4541 11.3772 19.0199C9.90073 18.5856 8.25062 17.9777 8.25062 17.9777C8.25062 17.9777 7.12161 17.2829 9.03228 16.5012C9.03228 16.5012 17.3697 13.1141 20.2357 11.8983C21.3648 11.3772 25.0993 9.90074 25.0993 9.90074C25.0993 9.90074 27.01 9.1191 26.8363 10.7692Z" fill="white"/>
</svg>
