<svg width="35" height="35" viewBox="0 0 35 35" fill="none" xmlns="http://www.w3.org/2000/svg">
<path d="M29.8632 5.13682C26.6418 1.91543 22.2886 0 17.5 0C12.7114 0 8.27114 2.0025 5.13681 5.13682C1.91542 8.35821 0 12.7114 0 17.5C0 27.1642 7.92289 35 17.5 35C22.2886 35 26.7288 32.9975 29.8632 29.8632C33.0846 26.7289 35 22.2886 35 17.5C35 12.7114 32.9975 8.35821 29.8632 5.13682ZM24.9005 19.7637C26.3806 21.2438 26.7288 22.0274 26.8159 22.1144C27.4254 23.2463 26.1194 23.3333 26.1194 23.3333L23.5945 23.4204C23.5945 23.4204 23.0721 23.5075 22.3756 22.9851C21.4179 22.2886 20.5472 20.4602 19.8507 20.7214C19.1542 20.9826 19.1542 22.6368 19.1542 22.6368C19.1542 22.6368 19.1542 22.9851 18.9801 23.1592C18.806 23.3333 18.4577 23.4204 18.4577 23.4204H17.3259C17.3259 23.4204 14.801 23.5945 12.6244 21.1567C10.1866 18.4577 8.097 13.1468 8.097 13.1468C8.097 13.1468 8.00994 12.7985 8.097 12.6244C8.27113 12.4502 8.61939 12.4502 8.61939 12.4502H11.3184C11.3184 12.4502 11.5796 12.4502 11.7537 12.6244C11.9279 12.7114 12.0149 12.9726 12.0149 12.9726C12.0149 12.9726 12.4502 14.1915 13.0597 15.2363C14.1915 17.3259 14.7139 17.7612 15.0622 17.5871C15.5846 17.2388 15.4105 14.6269 15.4105 14.6269C15.4105 14.6269 15.4104 13.6691 15.1492 13.2338C14.888 12.8856 14.4527 12.7985 14.2786 12.7985C14.1045 12.7985 14.3657 12.3632 14.7139 12.1891C15.2363 11.9279 16.0199 11.9279 17.0647 11.9279C17.8483 11.9279 18.1095 12.0149 18.3706 12.102C19.3284 12.3632 18.9801 13.2338 18.9801 15.4975C18.9801 16.194 18.893 17.2388 19.3284 17.5871C19.5025 17.7612 20.0249 17.5871 21.3308 15.3234C21.9403 14.1915 22.3756 12.9726 22.3756 12.9726C22.3756 12.9726 22.4627 12.7114 22.6368 12.6244C22.8109 12.5373 22.9851 12.5373 22.9851 12.5373H25.8582C25.8582 12.5373 26.7288 12.4502 26.903 12.8856C27.0771 13.3209 26.5547 14.3657 25.4229 16.0199C23.5075 18.4577 23.2463 18.1965 24.9005 19.7637Z" fill="white"/>
</svg>
